# xmcd
#
# Track frame offsets: 
#        150
#        12760
#        46585
#        58135
#        84835
#        111385
#        134185
#        159985
#        184810
#        201835
#        223210
#        241735
#
# Disc length: 3590 seconds
#
# Revision: 2
# Processed by: cddbd v1.5.2PL0 Copyright (c) Steve Scherf et al.
# Submitted via: ExactAudioCopy v1.0b3
#
DISCID=a40e040c
DTITLE=Various Artist - Jazz Sexy
DYEAR=2003
DGENRE=Jazz
TTITLE0=Dave's True Story - Baby Talk
TTITLE1=Eddie Daniels - The Man I Love
TTITLE2=John Pizzarelli - The Touch of Your Lips
TTITLE3=Jon Faddis - Naima
TTITLE4=Rosa Passos - Insensatez
TTITLE5=Oregon - Green and Golden
TTITLE6=Christy Baron - Body and Soul
TTITLE7=The Fred Hersch Trio - I Fall In Love Too Easily
TTITLE8=Kenny Rankin - 'Round Midnight
TTITLE9=Chuck Mangione - La Vie En Rose
TTITLE10=Peggy Lee - Remind Me
TTITLE11=The John Basile Quartet - My Funny Valentine
EXTD=YEAR: 2003
EXTT0=
EXTT1=
EXTT2=
EXTT3=
EXTT4=
EXTT5=
EXTT6=
EXTT7=
EXTT8=
EXTT9=
EXTT10=
EXTT11=
PLAYORDER=
